<svg id="Capa_1" enable-background="new 0 0 512 512" height="512" viewBox="0 0 512 512" width="512" xmlns="http://www.w3.org/2000/svg"><g><path d="m431.554 141.447c27.219-6.729 51.634-16.122 71.866-29.488 4.316-2.851 7.289-7.334 8.246-12.417 2.109-11.204-6.001-21.749-17.371-22.586l-20.207-1.487c-3.831-.282-6.141-4.371-4.406-7.798l6.857-13.539c5.859-11.57 2.666-25.621-7.521-33.647-10.513-8.282-22.05-14.584-34.577-18.968-13.202-4.621-27.797 1.64-33.557 14.387-10.229 22.637-16.49 47.891-19.749 75.123z" fill="#78c2a4"/><path d="m141.447 431.554c-6.729 27.219-16.122 51.634-29.488 71.866-2.851 4.316-7.334 7.289-12.417 8.246-11.204 2.109-21.749-6.001-22.586-17.371l-1.487-20.207c-.282-3.831-4.371-6.141-7.798-4.406l-13.539 6.857c-11.57 5.859-25.621 2.666-33.647-7.521-8.282-10.513-14.584-22.05-18.968-34.577-4.621-13.202 1.64-27.797 14.387-33.557 22.637-10.229 47.891-16.49 75.123-19.749z" fill="#78c2a4"/><g><g><path d="m397.829 123.683c-2.691 0-5.305-1.407-6.727-3.915-2.099-3.7-.811-8.398 2.874-10.513.15-.089 4.254-2.538 7.117-6.559 3.247-4.56 3.444-8.855.637-13.925-2.066-3.733-.715-8.436 3.017-10.502 3.735-2.068 8.436-.715 10.502 3.017 10.406 18.799-2.441 35.052-13.615 41.39-1.204.683-2.514 1.007-3.805 1.007z" fill="#66b394"/></g><g><path d="m399.161 125.03c-1.292 0-2.601-.324-3.805-1.007-3.712-2.106-5.014-6.821-2.908-10.532 6.337-11.174 22.587-24.027 41.39-13.616 3.732 2.066 5.083 6.769 3.017 10.502-2.066 3.732-6.767 5.086-10.502 3.017-5.175-2.864-9.56-2.602-14.219.852-3.878 2.874-6.223 6.83-6.245 6.868-1.424 2.509-4.038 3.916-6.728 3.916z" fill="#66b394"/></g></g><g><g><path d="m95.302 419.088c-4.413 0-9.128-1.133-14.016-3.839-3.732-2.066-5.084-6.769-3.017-10.502 2.067-3.732 6.768-5.086 10.502-3.017 5.175 2.864 9.559 2.603 14.219-.852 3.878-2.874 6.223-6.83 6.245-6.868 2.105-3.712 6.821-5.016 10.532-2.908 3.712 2.106 5.014 6.821 2.908 10.532-4.688 8.268-14.81 17.454-27.373 17.454z" fill="#66b394"/></g><g><path d="m106.642 437.822c-2.719.001-5.356-1.438-6.767-3.985-10.406-18.799 2.441-35.051 13.615-41.389 3.709-2.107 8.427-.804 10.532 2.908 2.099 3.7.811 8.398-2.874 10.513-.152.09-4.255 2.539-7.117 6.558-3.246 4.56-3.444 8.855-.637 13.925 2.066 3.733.715 8.436-3.017 10.502-1.185.657-2.469.968-3.735.968z" fill="#66b394"/></g></g><path d="m436.769 219.8-216.969 216.969c-20.196 20.196-52.941 20.196-73.137 0l-68.308-68.308c-20.196-20.196-20.196-52.941 0-73.137l216.969-216.97c20.196-20.196 52.941-20.196 73.137 0l68.308 68.308c20.197 20.197 20.197 52.942 0 73.138z" fill="#dd636e"/><path d="m295.324 78.354-20.797 20.797c20.196-20.196 52.941-20.196 73.137 0l68.308 68.308c20.196 20.196 20.196 52.941 0 73.137l20.797-20.797c20.196-20.196 20.196-52.941 0-73.137l-68.308-68.308c-20.196-20.196-52.941-20.196-73.137 0z" fill="#da4a54"/><g fill="#78c2a4"><path d="m103.441 270.237-25.086 25.086c-5.935 5.935-10.112 12.957-12.559 20.423 28.904 19.836 105.173 63.579 213.304 61.723l49.709-49.709c-111.086 6.831-191.333-35.302-225.368-57.523z"/><path d="m219.604 154.074-42.637 42.637c34.138 22.26 114.41 64.318 225.468 57.423l34.334-34.334c4.667-4.667 8.242-10.01 10.752-15.708-107.503 10.135-187.838-26.072-227.917-50.018z"/></g></g></svg>