<svg id="Capa_1" enable-background="new 0 0 512 512" height="512" viewBox="0 0 512 512" width="512" xmlns="http://www.w3.org/2000/svg"><g><path d="m237.875 49.29c-77.96 107.909-137.341 215.818-178.145 323.727-9.704 25.663 9.224 53.11 36.66 53.11h159.61 159.609c27.436 0 46.364-27.447 36.66-53.11-40.803-107.909-100.184-215.818-178.144-323.727-8.913-12.337-27.337-12.337-36.25 0z" fill="#78c2a4"/><path d="m452.27 373.017c-40.804-107.909-100.185-215.818-178.145-323.727-7.521-10.41-21.814-12.036-31.45-4.878 1.784 1.325 3.408 2.951 4.8 4.878 77.96 107.909 137.341 215.818 178.145 323.727 9.704 25.663-9.224 53.11-36.66 53.11h26.649c27.437 0 46.365-27.447 36.661-53.11z" fill="#66b394"/><path d="m220.417 43.302c-21.887-19.242-43.361-36.018-63.105-42.472-6.42-2.099-13.473-.135-17.91 4.957l-5.666 6.503c-6.123 7.027-5.373 17.691 1.672 23.793l8.231 7.128c4.958 4.294 4.368 12.156-1.175 15.662l-14.112 8.927c-10.342 6.542-11.895 21.011-3.177 29.598l31.234 30.764c6.45 6.352 16.51 7.308 23.987 2.205 18.798-12.827 31.572-31.245 40.02-53.677v-33.388z" fill="#dd636e"/><path d="m291.583 43.302c21.887-19.242 43.361-36.018 63.105-42.472 6.42-2.099 13.473-.135 17.91 4.957l5.666 6.503c6.123 7.027 5.373 17.691-1.672 23.793l-8.231 7.128c-4.958 4.294-4.368 12.156 1.175 15.662l14.112 8.926c10.342 6.542 11.895 21.011 3.177 29.598l-31.234 30.764c-6.45 6.352-16.51 7.308-23.987 2.205-18.798-12.827-31.572-31.245-40.02-53.677v-33.387z" fill="#dd636e"/><g><path d="m202.862 82.824c-.201 0-.404-.007-.609-.023-4.254-.332-7.434-4.049-7.103-8.304.378-4.848 3.458-8.76 7.723-11.883-3.747-1.628-5.851-3.4-7.011-4.994-2.51-3.451-1.747-8.284 1.703-10.794 3.288-2.391 7.828-1.813 10.422 1.231 2.616 1.648 13.476 3.638 23.195 4.226 3.868.234 6.966 3.298 7.24 7.163.276 3.866-2.354 7.337-6.15 8.118-9.464 1.958-19.824 6.121-21.783 8.71-.574 3.762-3.824 6.55-7.627 6.55z" fill="#da4a54"/></g><g><path d="m309.137 82.824c-3.804.001-7.053-2.788-7.629-6.549-1.959-2.59-12.319-6.753-21.788-8.711-3.794-.786-6.423-4.26-6.144-8.124.28-3.863 3.374-6.925 7.241-7.156 9.717-.589 20.577-2.578 23.193-4.226 2.593-3.042 7.133-3.623 10.421-1.231 3.451 2.509 4.214 7.342 1.704 10.793-1.159 1.595-3.263 3.367-7.011 4.995 4.266 3.124 7.345 7.035 7.723 11.883.331 4.255-2.849 7.972-7.103 8.304-.202.015-.405.022-.607.022z" fill="#da4a54"/></g><g><circle cx="256" cy="143.806" fill="#986b54" r="33.406"/><path d="m256 110.4c-4.197 0-8.21.781-11.91 2.194 12.567 4.799 21.496 16.959 21.496 31.212s-8.929 26.414-21.496 31.212c3.7 1.413 7.713 2.194 11.91 2.194 18.45 0 33.406-14.957 33.406-33.406s-14.956-33.406-33.406-33.406z" fill="#845c47"/></g><g><circle cx="134.623" cy="369.106" fill="#986b54" r="33.406"/><path d="m134.623 335.7c-4.197 0-8.21.781-11.91 2.194 12.567 4.799 21.496 16.959 21.496 31.212s-8.929 26.414-21.496 31.212c3.7 1.413 7.713 2.194 11.91 2.194 18.45 0 33.406-14.957 33.406-33.406s-14.956-33.406-33.406-33.406z" fill="#845c47"/></g><g><circle cx="256" cy="369.106" fill="#986b54" r="33.406"/><path d="m256 335.7c-4.197 0-8.21.781-11.91 2.194 12.567 4.799 21.496 16.959 21.496 31.212s-8.929 26.414-21.496 31.212c3.7 1.413 7.713 2.194 11.91 2.194 18.45 0 33.406-14.957 33.406-33.406s-14.956-33.406-33.406-33.406z" fill="#845c47"/></g><g><circle cx="377.377" cy="369.106" fill="#986b54" r="33.406"/><path d="m377.377 335.7c-4.197 0-8.21.781-11.91 2.194 12.567 4.799 21.496 16.959 21.496 31.212s-8.929 26.414-21.496 31.212c3.7 1.413 7.713 2.194 11.91 2.194 18.45 0 33.406-14.957 33.406-33.406s-14.956-33.406-33.406-33.406z" fill="#845c47"/></g><g><g><circle cx="187.879" cy="258.878" fill="#986b54" r="33.406"/><path d="m187.879 225.471c-4.197 0-8.21.781-11.91 2.194 12.567 4.799 21.496 16.959 21.496 31.212s-8.929 26.414-21.496 31.212c3.7 1.413 7.713 2.194 11.91 2.194 18.45 0 33.406-14.957 33.406-33.406.001-18.449-14.956-33.406-33.406-33.406z" fill="#845c47"/></g><g><circle cx="324.121" cy="258.878" fill="#986b54" r="33.406"/><path d="m324.121 225.471c-4.197 0-8.21.781-11.91 2.194 12.567 4.799 21.496 16.959 21.496 31.212s-8.929 26.414-21.496 31.212c3.7 1.413 7.713 2.194 11.91 2.194 18.45 0 33.406-14.957 33.406-33.406s-14.957-33.406-33.406-33.406z" fill="#845c47"/></g></g><path d="m425.108 307.296h-160.708v-95.652h112.998c-2.832-5.151-5.717-10.302-8.634-15.453h-225.529c-2.917 5.151-5.802 10.302-8.634 15.453h114.346v95.652h-162.055c-2.308 5.151-4.585 10.302-6.808 15.453h105.567v103.379h15.453v-103.379h109.794v103.379h15.453v-103.379h105.567c-2.225-5.151-4.502-10.302-6.81-15.453z" fill="#66b394"/><path d="m279.436 88.837h-46.872c-6.709 0-12.147-5.439-12.147-12.147v-33.388c0-6.709 5.439-12.147 12.147-12.147h46.872c6.709 0 12.147 5.439 12.147 12.147v33.388c0 6.709-5.438 12.147-12.147 12.147z" fill="#ffe07d"/><path d="m279.436 31.155h-18.305c6.709 0 12.147 5.439 12.147 12.147v33.388c0 6.709-5.439 12.147-12.147 12.147h18.305c6.709 0 12.147-5.439 12.147-12.147v-33.388c0-6.709-5.438-12.147-12.147-12.147z" fill="#ffd064"/><path d="m310.203 512h-108.406c-10.531 0-19.069-8.537-19.069-19.069v-66.804h146.543v66.804c0 10.532-8.537 19.069-19.068 19.069z" fill="#b3e59f"/><path d="m301.016 426.127v66.804c0 10.531-8.537 19.069-19.069 19.069h28.255c10.531 0 19.069-8.537 19.069-19.069v-66.804z" fill="#95d6a4"/><path d="m283.869 489.206h-55.737c-6.175 0-11.18-5.005-11.18-11.18v-17.926c0-6.175 5.005-11.18 11.18-11.18h55.737c6.175 0 11.18 5.005 11.18 11.18v17.926c0 6.175-5.006 11.18-11.18 11.18z" fill="#986b54"/><path d="m283.869 448.921h-18.324c6.175 0 11.18 5.006 11.18 11.18v17.926c0 6.175-5.006 11.18-11.18 11.18h18.324c6.175 0 11.18-5.006 11.18-11.18v-17.926c0-6.175-5.006-11.18-11.18-11.18z" fill="#845c47"/></g></svg>